<?xml version="1.0" standalone="no"?>
<!DOCTYPE svg PUBLIC "-//W3C//DTD SVG 20010904//EN"
 "http://www.w3.org/TR/2001/REC-SVG-20010904/DTD/svg10.dtd">
<svg version="1.0" xmlns="http://www.w3.org/2000/svg"
 width="470.000000pt" height="581.000000pt" viewBox="0 0 470.000000 581.000000"
 preserveAspectRatio="xMidYMid meet">
<metadata>
Created by potrace 1.14, written by Peter Selinger 2001-2017
</metadata>
<g transform="translate(0.000000,581.000000) scale(0.100000,-0.100000)"
fill="#000000" stroke="none">
<path d="M659 5667 l-137 -142 -15 -273 -15 -273 67 -195 c67 -193 68 -195
152 -305 199 -262 228 -295 365 -413 l137 -119 149 -43 149 -43 106 -88 c58
-48 134 -112 169 -141 l63 -53 -29 -60 c-16 -34 -30 -62 -32 -64 -2 -3 -67 43
-145 100 l-141 105 -265 90 c-147 50 -271 90 -277 90 -16 0 -12 -16 32 -118
23 -53 62 -155 88 -227 l46 -130 130 -82 c200 -126 191 -123 338 -123 148 0
130 17 177 -160 29 -108 31 -133 44 -420 l13 -305 -39 -48 c-34 -44 -38 -53
-34 -95 3 -26 7 -81 9 -123 l6 -77 -43 -17 c-23 -9 -97 -39 -164 -67 l-122
-50 -25 -76 c-14 -43 -47 -153 -74 -247 -28 -93 -67 -225 -88 -292 l-37 -122
65 -138 c36 -76 98 -209 139 -295 l73 -157 183 -94 183 -93 83 -115 c51 -70
91 -115 103 -116 10 -1 93 35 184 81 l165 83 121 132 c66 73 181 185 255 250
l134 118 31 214 32 214 -33 105 c-18 58 -59 190 -90 293 l-56 187 11 201 c16
323 14 365 -30 630 l-41 239 35 186 c20 103 37 188 39 190 1 2 67 8 146 13
l143 10 127 67 c69 36 130 69 134 74 15 14 155 505 147 514 -5 5 -111 -25
-242 -67 -128 -41 -243 -78 -255 -82 -12 -3 -79 -53 -149 -111 l-127 -105 -39
38 c-21 20 -38 41 -38 45 0 4 51 49 113 100 63 51 173 142 245 201 l132 108
192 79 c106 44 200 84 208 88 14 8 66 89 234 359 l76 121 56 357 57 357 -88
220 c-49 120 -93 221 -97 225 -5 3 -12 2 -16 -2 -4 -4 -9 -182 -12 -395 l-5
-389 -80 109 c-44 60 -85 111 -91 113 -23 10 -244 31 -251 24 -4 -4 55 -69
130 -145 129 -129 139 -142 173 -222 63 -149 64 -127 -8 -227 -35 -48 -88
-124 -118 -167 -55 -79 -55 -80 -325 -259 -231 -154 -410 -257 -445 -257 -5 0
2 28 15 63 13 34 64 169 113 299 l90 237 -48 198 c-26 109 -61 252 -76 317
-18 74 -34 121 -43 124 -12 4 -13 -33 -8 -249 l6 -254 -39 -105 c-21 -58 -82
-222 -135 -365 -53 -143 -117 -317 -143 -388 l-47 -127 -150 1 c-82 0 -162 3
-177 6 -25 5 -33 19 -84 152 -31 80 -88 225 -127 321 l-69 175 6 255 c3 140 9
324 12 408 6 130 4 152 -8 152 -9 0 -19 -16 -26 -37 -6 -21 -37 -130 -70 -243
-57 -194 -61 -213 -67 -345 l-6 -140 71 -259 c39 -142 70 -260 67 -262 -2 -2
-28 19 -59 46 -47 42 -89 64 -260 136 l-204 86 -164 180 c-91 100 -169 188
-175 197 -15 26 -43 311 -30 320 5 4 79 26 164 49 85 24 160 47 167 53 7 5 61
87 120 182 59 95 116 183 126 196 20 27 24 51 7 51 -6 0 -89 -53 -183 -118
-310 -215 -266 -192 -366 -192 l-88 0 -75 121 c-69 111 -74 123 -66 152 40
135 119 423 119 434 0 30 -32 4 -161 -130z m116 61 c-2 -7 -29 -101 -59 -208
-43 -152 -69 -225 -120 -330 l-66 -135 6 175 c10 299 1 271 128 400 60 60 111
110 112 110 2 0 1 -6 -1 -12z m3093 -226 l70 -173 -74 -150 c-40 -82 -76 -149
-79 -149 -3 0 -5 149 -5 332 0 200 4 328 9 323 5 -6 41 -88 79 -183z m-2458
-188 c0 -15 -194 -315 -209 -323 -24 -13 -274 -82 -279 -77 -12 13 128 163
196 209 41 29 120 84 176 124 99 70 116 80 116 67z m-652 -140 c28 -48 52 -92
52 -98 0 -13 -123 -326 -139 -353 -14 -25 -14 14 4 277 8 118 15 225 15 238 0
12 3 22 8 22 4 0 31 -39 60 -86z m-112 -194 c-9 -139 -16 -261 -16 -273 0 -11
-2 -18 -5 -15 -8 8 -95 259 -95 274 0 21 124 287 128 275 2 -5 -4 -123 -12
-261z m2868 224 l44 -6 12 -85 c7 -46 10 -86 8 -88 -2 -2 -49 41 -104 96 l-99
101 48 -6 c26 -3 67 -9 91 -12z m361 -233 c-19 -121 -35 -226 -35 -233 0 -35
-19 18 -39 108 l-22 101 62 126 c35 69 65 125 67 123 1 -2 -13 -103 -33 -225z
m-192 65 c63 -84 67 -94 92 -205 15 -64 29 -124 31 -133 8 -29 -11 -21 -59 25
-70 66 -147 273 -147 397 0 30 1 28 83 -84z m-2693 24 c0 -5 -53 -74 -117
-153 -65 -78 -128 -155 -141 -171 -12 -16 -24 -27 -27 -25 -4 4 123 323 138
347 10 15 147 17 147 2z m800 -298 c-4 -156 -10 -285 -13 -288 -5 -5 -87 198
-87 217 0 15 102 361 105 357 2 -2 -1 -130 -5 -286z m1065 70 c26 -106 44
-196 41 -200 -4 -3 -25 12 -47 35 l-41 40 -5 164 c-3 90 -3 162 0 159 3 -3 26
-92 52 -198z m-1994 -19 c0 -10 6 -69 13 -130 8 -79 9 -113 2 -112 -40 1 -196
36 -197 43 -2 11 162 216 173 216 4 0 8 -8 9 -17z m2917 -155 c18 -15 32 -30
32 -34 0 -14 -211 -346 -217 -340 -4 3 87 380 102 424 5 14 12 10 83 -50z
m-871 -107 c-3 -14 -21 -66 -40 -116 -34 -87 -35 -89 -40 -55 -4 19 -9 91 -12
159 l-6 124 51 -43 c44 -36 51 -48 47 -69z m687 -126 c-27 -107 -53 -194 -58
-192 -5 2 -22 38 -38 82 l-29 78 40 56 c21 31 58 84 82 118 23 35 45 61 47 58
2 -2 -17 -92 -44 -200z m-800 6 l8 -169 -148 -201 c-81 -110 -149 -199 -151
-197 -2 1 31 95 73 207 41 112 97 265 124 339 65 183 68 190 78 190 5 0 12
-76 16 -169z m-1020 -44 c143 -364 143 -361 0 -121 l-94 159 0 83 c0 45 3 82
8 82 4 0 43 -91 86 -203z m-960 165 l80 -17 48 -90 c27 -49 72 -133 100 -185
28 -52 66 -123 85 -157 19 -35 32 -63 28 -63 -4 0 -50 37 -102 82 -90 78 -126
120 -288 333 -37 50 -73 96 -78 103 -13 17 27 15 127 -6z m300 -255 c60 -67
151 -167 201 -222 161 -174 164 -180 89 -156 -16 6 -61 19 -101 31 l-72 21
-69 127 c-140 257 -173 322 -165 321 4 0 57 -55 117 -122z m2370 -24 c20 -53
35 -97 34 -99 -6 -5 -522 -114 -525 -110 -3 2 6 12 19 21 54 39 424 284 429
284 4 1 23 -42 43 -96z m-1639 -177 c107 -177 182 -328 166 -334 -4 -1 -46 20
-93 47 l-85 50 -56 209 c-31 115 -57 213 -57 217 0 16 15 -7 125 -189z m846
-129 l-63 -163 -84 -36 c-46 -20 -84 -32 -84 -27 0 12 283 399 288 394 3 -2
-23 -78 -57 -168z m-1193 76 c141 -60 165 -74 237 -137 44 -39 126 -98 183
-130 56 -33 102 -62 102 -65 -1 -12 -142 -102 -155 -99 -31 7 -334 269 -430
373 -97 103 -114 125 -100 125 3 0 76 -30 163 -67z m1827 48 c-6 -4 -84 -38
-175 -75 -91 -36 -235 -95 -320 -130 -85 -35 -156 -63 -157 -62 -2 2 4 24 13
50 16 47 19 49 103 88 63 30 142 53 296 88 217 49 256 56 240 41z m-296 -165
c-2 -2 -62 -52 -134 -110 -71 -59 -163 -134 -203 -168 l-73 -61 -78 54 c-44
30 -77 57 -75 60 3 6 43 22 384 163 135 56 194 76 179 62z m427 -148 c-3 -18
-16 -64 -29 -102 l-22 -68 -220 -113 c-121 -63 -222 -112 -224 -110 -2 3 29
48 68 100 70 93 78 100 244 210 95 62 176 114 181 114 4 1 5 -14 2 -31z
m-2245 -114 c174 -111 192 -125 267 -214 45 -52 80 -96 78 -98 -4 -4 -465 243
-479 257 -5 5 -27 49 -48 97 -32 70 -36 85 -21 81 9 -2 101 -58 203 -123z
m2125 108 c-2 -4 -51 -37 -107 -72 -142 -89 -143 -90 -382 -407 -22 -29 -43
-53 -47 -53 -11 0 -62 222 -53 231 39 36 260 209 268 209 6 0 76 22 155 49
148 50 175 57 166 43z m-2004 -84 c156 -53 157 -53 301 -159 l145 -107 -20
-98 c-11 -55 -23 -102 -27 -107 -4 -4 -77 73 -162 172 -154 178 -154 178 -291
266 -76 48 -138 89 -138 92 0 5 -9 8 192 -59z m977 2 c70 0 82 -2 77 -15 -10
-26 -118 -185 -126 -185 -8 0 -170 196 -170 206 0 4 30 4 68 1 37 -4 105 -7
151 -7z m-160 -117 c50 -61 91 -115 91 -119 0 -17 -154 -244 -161 -237 -20 21
-189 355 -184 364 10 15 148 110 156 107 4 -2 48 -53 98 -115z m376 47 c41
-29 75 -55 75 -58 -1 -22 -109 -343 -116 -345 -4 -1 -52 52 -106 118 -96 118
-97 120 -82 145 87 139 131 199 141 195 7 -2 46 -27 88 -55z m-1217 -171 c220
-119 246 -135 197 -126 -16 3 -103 18 -192 33 l-162 27 -27 76 c-15 42 -29 82
-32 89 -2 6 -1 12 3 12 3 0 100 -50 213 -111z m2081 99 c0 -7 -13 -51 -28 -98
l-27 -85 -169 -6 c-158 -6 -185 -5 -174 5 7 7 384 195 392 195 4 1 7 -5 6 -11z
m-1429 -170 c47 -89 86 -167 88 -175 3 -10 -26 -13 -142 -13 -80 0 -146 2
-146 4 0 3 11 56 25 118 22 105 67 228 83 228 4 0 45 -73 92 -162z m713 124
c34 -35 41 -51 67 -163 33 -138 33 -139 -40 -139 -25 0 -75 -3 -112 -7 -53 -4
-68 -3 -68 7 0 21 103 340 110 340 3 0 23 -17 43 -38z m-351 -143 c42 -51 116
-143 139 -173 15 -19 14 -44 -12 -331 -15 -170 -28 -311 -28 -312 -1 -2 -54
-3 -120 -3 -83 0 -121 4 -128 13 -5 6 -24 148 -42 315 -38 347 -47 286 69 465
51 78 66 96 74 85 6 -8 27 -35 48 -59z m-997 -34 c22 -4 87 -15 145 -25 58
-11 119 -22 135 -24 18 -3 42 -20 62 -43 l32 -38 -116 -3 -116 -3 -119 71
c-65 39 -118 73 -118 76 0 3 12 3 28 0 15 -3 45 -8 67 -11z m1930 -4 c-6 -5
-46 -28 -89 -52 -77 -41 -82 -42 -205 -50 -69 -4 -128 -6 -130 -4 -2 2 13 27
33 54 37 50 38 50 99 54 138 8 301 7 292 -2z m-491 -150 c3 -4 -10 -89 -29
-187 l-34 -179 -103 -98 c-56 -54 -104 -95 -106 -89 -2 8 57 164 183 481 14
36 31 68 38 73 16 10 45 10 51 -1z m-97 -13 c-107 -271 -187 -480 -187 -488 0
-5 -4 -10 -10 -10 -5 0 -7 25 -4 63 4 34 14 145 23 247 l16 185 40 6 c75 12
128 10 122 -3z m-717 -128 c26 -69 73 -192 104 -273 31 -82 56 -151 56 -154 0
-3 -62 54 -137 127 l-138 131 -37 142 c-20 78 -34 145 -31 150 2 4 34 7 71 5
l65 -3 47 -125z m124 93 c12 -79 48 -435 44 -439 -5 -4 -162 403 -173 449 l-7
27 65 0 65 0 6 -37z m-181 -440 l44 -88 12 -310 c17 -463 18 -456 -40 -225
-46 181 -50 208 -59 380 -10 206 -12 330 -5 330 3 0 24 -39 48 -87z m130 -41
l117 -117 0 -118 c0 -64 -3 -117 -7 -117 -6 0 -210 391 -241 463 -12 26 28 -8
131 -111z m721 -103 c20 -113 36 -218 36 -232 0 -23 -150 -410 -164 -425 -9
-8 -7 66 9 413 l14 310 32 73 c18 40 33 71 35 70 1 -2 18 -96 38 -209z m-186
-37 c-51 -111 -96 -202 -100 -202 -5 0 -8 51 -8 113 l0 112 97 92 c53 51 98
91 100 89 2 -2 -38 -94 -89 -204z m-483 -171 c57 -115 70 -154 125 -367 34
-132 84 -324 111 -427 28 -104 48 -191 45 -194 -3 -3 -84 73 -180 168 l-175
174 -16 376 c-8 206 -15 395 -15 420 l0 44 20 -33 c11 -18 49 -91 85 -161z
m515 -196 l-17 -370 -45 -110 c-90 -219 -111 -266 -114 -262 -5 4 24 620 35
737 8 88 13 105 77 242 38 80 72 143 75 140 3 -4 -2 -173 -11 -377z m-695
-136 c31 -127 54 -236 53 -241 -3 -8 -87 88 -140 159 -5 6 -13 66 -18 133 -9
118 -9 123 13 151 12 15 25 28 29 28 3 1 32 -103 63 -230z m522 99 c-4 -57
-11 -215 -17 -353 -11 -248 -18 -340 -25 -333 -3 2 -45 161 -94 353 -50 193
-95 366 -101 385 -5 19 -10 38 -10 42 0 5 57 8 126 8 l127 0 -6 -102z m349
-310 c-26 -607 -36 -791 -40 -795 -4 -4 -77 63 -254 232 l-63 60 29 75 c42
105 146 361 237 585 42 105 81 201 86 214 5 13 12 21 15 18 3 -3 -1 -178 -10
-389z m-908 22 c39 -48 72 -92 72 -97 0 -4 -92 10 -205 32 -113 22 -204 44
-202 49 3 10 225 104 247 105 8 0 48 -40 88 -89z m-153 -90 c116 -22 218 -44
229 -48 20 -8 32 2 -469 -405 -104 -85 -191 -151 -193 -146 -3 6 152 543 183
637 3 7 13 11 22 8 10 -2 113 -23 228 -46z m486 -262 c98 -95 179 -180 179
-188 -1 -20 -326 -1160 -334 -1167 -3 -4 -7 -4 -9 -2 -2 2 -34 47 -72 99 l-69
94 17 201 c9 110 32 396 52 635 36 444 42 500 51 500 3 0 86 -78 185 -172z
m-250 140 c-45 -118 -431 -1061 -437 -1067 -4 -4 -64 120 -193 393 -28 60 -51
116 -51 125 0 10 39 48 87 87 116 92 226 182 428 347 93 75 170 137 172 137 1
0 -1 -10 -6 -22z m933 -245 c31 -101 56 -189 56 -197 0 -14 -159 -160 -166
-153 -6 6 17 578 23 597 6 17 10 8 87 -247z m-938 -130 c-43 -512 -76 -886
-82 -894 -4 -7 -306 141 -326 160 -4 3 11 49 33 101 22 52 119 290 216 528 97
238 178 430 180 428 3 -2 -7 -148 -21 -323z m687 -179 c53 -50 97 -97 97 -103
0 -14 -167 -351 -181 -365 -6 -6 -9 -6 -9 0 0 5 -7 45 -15 89 -65 363 -95 533
-95 549 0 20 3 18 203 -170z m-169 -194 c31 -173 56 -323 56 -333 0 -9 -29
-76 -65 -147 l-65 -130 -151 -76 c-83 -41 -153 -73 -155 -71 -4 4 36 154 146
537 153 537 164 573 171 554 4 -11 32 -161 63 -334z m476 230 c0 -6 -9 -65
-19 -133 -11 -67 -22 -143 -26 -169 -6 -45 -11 -52 -116 -143 -60 -53 -109
-92 -109 -88 0 4 20 96 45 203 25 107 45 195 45 196 0 1 36 33 80 73 79 69
100 82 100 61z m-280 -446 l-31 -129 -72 -82 c-40 -44 -74 -79 -77 -77 -2 3
43 99 100 214 57 115 106 208 107 206 2 -2 -10 -61 -27 -132z"/>
</g>
</svg>
